<svg width="90" height="90" viewBox="0 0 90 90" fill="none" xmlns="http://www.w3.org/2000/svg">
<g opacity="0.1" clip-path="url(#clip0_1730:11711)">
<path d="M22.5685 47.9121H18.5323C17.4735 47.9121 16.5177 48.5424 16.0989 49.5134L4.92578 75.5297L31.4605 61.9774C28.2841 57.5821 25.1413 52.7344 22.5685 47.9121Z" fill="white"/>
<path d="M73.9028 49.5134C73.4846 48.5424 72.5281 47.9121 71.47 47.9121H67.4339C62.5752 57.017 55.4965 66.4261 50.9935 71.6027C47.8267 75.2351 42.1701 75.231 39.0081 71.6027C38.6847 71.2313 36.9962 69.2764 34.6706 66.2703L29.8867 68.7147L47.9826 86.7755L82.2709 68.9997L73.9028 49.5134Z" fill="white"/>
<path d="M1.65961 83.133L0.216284 86.4941C-0.530786 88.2334 0.749121 90.1759 2.64907 90.1759H41.5057C41.7487 89.9953 41.7515 90.0063 43.0561 89.33L24.9335 71.2451L1.65961 83.133Z" fill="white"/>
<path d="M89.7819 86.4948L84.3601 73.8701L52.9062 90.1766H87.3491C89.2449 90.1766 90.5303 88.2375 89.7819 86.4948Z" fill="white"/>
<path d="M47.6456 23.9638C47.6456 22.5067 46.4577 21.3223 44.9986 21.3223C43.5388 21.3223 42.3516 22.5067 42.3516 23.9638C42.3516 25.4202 43.5388 26.6053 44.9986 26.6053C46.4577 26.6053 47.6456 25.4202 47.6456 23.9638Z" fill="white"/>
<path d="M46.9957 67.9601C47.887 66.937 68.8207 42.7218 68.8207 26.0761C68.8207 -8.24792 21.1758 -8.66677 21.1758 26.0761C21.1758 42.7218 42.1095 66.937 43.0008 67.9601C44.0562 69.1707 45.9424 69.1693 46.9957 67.9601ZM37.0572 23.9633C37.0572 19.5935 40.6195 16.0387 44.9983 16.0387C49.3763 16.0387 52.9386 19.5935 52.9386 23.9633C52.9386 28.3324 49.3763 31.8872 44.9983 31.8872C40.6195 31.8872 37.0572 28.3324 37.0572 23.9633Z" fill="white"/>
</g>
<defs>
<clipPath id="clip0_1730:11711">
<rect width="90" height="90" fill="white"/>
</clipPath>
</defs>
</svg>
