<svg width="88" height="90" viewBox="0 0 88 90" fill="none" xmlns="http://www.w3.org/2000/svg">
<path d="M27.5 37.5H36.375L37.5469 28.125H31.0156L27.5 37.5Z" fill="#007A1B"/>
<path d="M69 46.875C70.2421 46.8713 71.4322 46.3762 72.3105 45.498C73.1887 44.6197 73.6838 43.4296 73.6875 42.1875V40.625H64.3125V42.1875C64.3162 43.4296 64.8113 44.6197 65.6895 45.498C66.5678 46.3762 67.7579 46.8713 69 46.875Z" fill="#007A1B"/>
<path d="M51.8125 42.1875C51.8125 43.4307 52.3064 44.623 53.1854 45.5021C54.0645 46.3811 55.2568 46.875 56.5 46.875C57.7432 46.875 58.9355 46.3811 59.8146 45.5021C60.6936 44.623 61.1875 43.4307 61.1875 42.1875V40.625H51.8125V42.1875Z" fill="#007A1B"/>
<path d="M40.6875 28.125L39.5156 37.5H48.4844L47.3125 28.125H40.6875Z" fill="#007A1B"/>
<path d="M39.3125 42.1875C39.3125 43.4307 39.8064 44.623 40.6854 45.5021C41.5645 46.3811 42.7568 46.875 44 46.875C45.2432 46.875 46.4355 46.3811 47.3146 45.5021C48.1936 44.623 48.6875 43.4307 48.6875 42.1875V40.625H39.3125V42.1875Z" fill="#007A1B"/>
<path d="M31.5 21.875H56.5V25H31.5V21.875Z" fill="#007A1B"/>
<path d="M50.4531 28.125L51.625 37.5H60.5L56.9844 28.125H50.4531Z" fill="#007A1B"/>
<path d="M79.9375 81.25V49.8438C78.0561 49.4523 76.3862 48.378 75.25 46.8281C74.531 47.811 73.5903 48.6105 72.5044 49.1616C71.4184 49.7127 70.2178 49.9999 69 49.9999C67.7822 49.9999 66.5816 49.7127 65.4956 49.1616C64.4097 48.6105 63.469 47.811 62.75 46.8281C62.031 47.811 61.0903 48.6105 60.0044 49.1616C58.9184 49.7127 57.7178 49.9999 56.5 49.9999C55.2822 49.9999 54.0816 49.7127 52.9956 49.1616C51.9097 48.6105 50.969 47.811 50.25 46.8281C49.531 47.811 48.5903 48.6105 47.5044 49.1616C46.4184 49.7127 45.2178 49.9999 44 49.9999C42.7822 49.9999 41.5816 49.7127 40.4956 49.1616C39.4097 48.6105 38.469 47.811 37.75 46.8281C37.031 47.811 36.0903 48.6105 35.0044 49.1616C33.9184 49.7127 32.7178 49.9999 31.5 49.9999C30.2822 49.9999 29.0816 49.7127 27.9956 49.1616C26.9097 48.6105 25.969 47.811 25.25 46.8281C24.531 47.811 23.5903 48.6105 22.5044 49.1616C21.4184 49.7127 20.2178 49.9999 19 49.9999C17.7822 49.9999 16.5816 49.7127 15.4956 49.1616C14.4097 48.6105 13.469 47.811 12.75 46.8281C11.6138 48.378 9.94394 49.4523 8.0625 49.8438V81.25H20.5625V60.9375C20.5662 59.6954 21.0613 58.5053 21.9395 57.627C22.8178 56.7488 24.0079 56.2537 25.25 56.25H62.75C63.9921 56.2537 65.1822 56.7488 66.0605 57.627C66.9387 58.5053 67.4338 59.6954 67.4375 60.9375V81.25H79.9375Z" fill="#007A1B"/>
<path d="M45.5625 59.375V81.25H64.3125V60.9375C64.3125 60.5231 64.1479 60.1257 63.8549 59.8326C63.5618 59.5396 63.1644 59.375 62.75 59.375H45.5625ZM50.25 71.875C50.25 72.2894 50.0854 72.6868 49.7924 72.9799C49.4993 73.2729 49.1019 73.4375 48.6875 73.4375C48.2731 73.4375 47.8757 73.2729 47.5826 72.9799C47.2896 72.6868 47.125 72.2894 47.125 71.875V70.3125C47.125 69.8981 47.2896 69.5007 47.5826 69.2076C47.8757 68.9146 48.2731 68.75 48.6875 68.75C49.1019 68.75 49.4993 68.9146 49.7924 69.2076C50.0854 69.5007 50.25 69.8981 50.25 70.3125V71.875Z" fill="#007A1B"/>
<path d="M76.8125 42.1875C76.8125 43.4307 77.3064 44.623 78.1854 45.5021C79.0645 46.3811 80.2568 46.875 81.5 46.875C82.7432 46.875 83.9355 46.3811 84.8146 45.5021C85.6936 44.623 86.1875 43.4307 86.1875 42.1875V40.625H76.8125V42.1875Z" fill="#007A1B"/>
<path d="M23.6875 60.9375V81.25H42.4375V59.375H25.25C24.8356 59.375 24.4382 59.5396 24.1451 59.8326C23.8521 60.1257 23.6875 60.5231 23.6875 60.9375ZM37.75 70.3125C37.75 69.8981 37.9146 69.5007 38.2076 69.2076C38.5007 68.9146 38.8981 68.75 39.3125 68.75C39.7269 68.75 40.1243 68.9146 40.4174 69.2076C40.7104 69.5007 40.875 69.8981 40.875 70.3125V71.875C40.875 72.2894 40.7104 72.6868 40.4174 72.9799C40.1243 73.2729 39.7269 73.4375 39.3125 73.4375C38.8981 73.4375 38.5007 73.2729 38.2076 72.9799C37.9146 72.6868 37.75 72.2894 37.75 71.875V70.3125Z" fill="#007A1B"/>
<path d="M23.6875 42.1875V40.625H14.3125V42.1875C14.3125 43.4307 14.8064 44.623 15.6854 45.5021C16.5645 46.3811 17.7568 46.875 19 46.875C20.2432 46.875 21.4355 46.3811 22.3146 45.5021C23.1936 44.623 23.6875 43.4307 23.6875 42.1875Z" fill="#007A1B"/>
<path d="M60.3125 28.125L63.8281 37.5H72.7188L68.0313 28.125H60.3125Z" fill="#007A1B"/>
<path d="M67.4375 0H20.5625C20.1481 0 19.7507 0.16462 19.4576 0.457646C19.1646 0.750672 19 1.1481 19 1.5625V17.1875C19 17.6019 19.1646 17.9993 19.4576 18.2924C19.7507 18.5854 20.1481 18.75 20.5625 18.75H67.4375C67.8519 18.75 68.2493 18.5854 68.5424 18.2924C68.8354 17.9993 69 17.6019 69 17.1875V1.5625C69 1.1481 68.8354 0.750672 68.5424 0.457646C68.2493 0.16462 67.8519 0 67.4375 0ZM28.375 7.8125C29.3021 7.8125 30.2084 8.08742 30.9792 8.60249C31.7501 9.11756 32.3509 9.84964 32.7057 10.7062C33.0605 11.5627 33.1533 12.5052 32.9724 13.4145C32.7916 14.3238 32.3451 15.159 31.6896 15.8146C31.034 16.4701 30.1988 16.9166 29.2895 17.0974C28.3802 17.2783 27.4377 17.1855 26.5812 16.8307C25.7246 16.4759 24.9926 15.8751 24.4775 15.1042C23.9624 14.3334 23.6875 13.4271 23.6875 12.5C23.6875 12.0856 23.8521 11.6882 24.1451 11.3951C24.4382 11.1021 24.8356 10.9375 25.25 10.9375C25.6644 10.9375 26.0618 11.1021 26.3549 11.3951C26.6479 11.6882 26.8125 12.0856 26.8125 12.5C26.8125 12.809 26.9041 13.1111 27.0758 13.3681C27.2475 13.625 27.4915 13.8253 27.7771 13.9436C28.0626 14.0618 28.3767 14.0928 28.6798 14.0325C28.9829 13.9722 29.2613 13.8234 29.4799 13.6049C29.6984 13.3863 29.8472 13.1079 29.9075 12.8048C29.9678 12.5017 29.9368 12.1876 29.8186 11.9021C29.7003 11.6165 29.5 11.3725 29.2431 11.2008C28.9861 11.0291 28.684 10.9375 28.375 10.9375C27.4479 10.9375 26.5416 10.6626 25.7708 10.1475C24.9999 9.63244 24.3991 8.90036 24.0443 8.04383C23.6895 7.1873 23.5967 6.2448 23.7776 5.33551C23.9584 4.42623 24.4049 3.591 25.0604 2.93544C25.716 2.27988 26.5512 1.83344 27.4605 1.65257C28.3698 1.4717 29.3123 1.56453 30.1688 1.91931C31.0254 2.2741 31.7574 2.87491 32.2725 3.64576C32.7876 4.41662 33.0625 5.3229 33.0625 6.25C33.0625 6.6644 32.8979 7.06183 32.6049 7.35485C32.3118 7.64788 31.9144 7.8125 31.5 7.8125C31.0856 7.8125 30.6882 7.64788 30.3951 7.35485C30.1021 7.06183 29.9375 6.6644 29.9375 6.25C29.9375 5.94097 29.8459 5.63887 29.6742 5.38192C29.5025 5.12497 29.2585 4.9247 28.9729 4.80644C28.6874 4.68818 28.3733 4.65723 28.0702 4.71752C27.7671 4.77781 27.4887 4.92663 27.2701 5.14515C27.0516 5.36367 26.9028 5.64208 26.8425 5.94517C26.7822 6.24827 26.8132 6.56243 26.9314 6.84794C27.0497 7.13345 27.25 7.37748 27.5069 7.54917C27.7639 7.72086 28.066 7.8125 28.375 7.8125ZM44 15.625C44 16.0394 43.8354 16.4368 43.5424 16.7299C43.2493 17.0229 42.8519 17.1875 42.4375 17.1875C42.0231 17.1875 41.6257 17.0229 41.3326 16.7299C41.0396 16.4368 40.875 16.0394 40.875 15.625V10.9375H37.75V15.625C37.75 16.0394 37.5854 16.4368 37.2924 16.7299C36.9993 17.0229 36.6019 17.1875 36.1875 17.1875C35.7731 17.1875 35.3757 17.0229 35.0826 16.7299C34.7896 16.4368 34.625 16.0394 34.625 15.625V3.125C34.625 2.7106 34.7896 2.31317 35.0826 2.02015C35.3757 1.72712 35.7731 1.5625 36.1875 1.5625C36.6019 1.5625 36.9993 1.72712 37.2924 2.02015C37.5854 2.31317 37.75 2.7106 37.75 3.125V7.8125H40.875V3.125C40.875 2.7106 41.0396 2.31317 41.3326 2.02015C41.6257 1.72712 42.0231 1.5625 42.4375 1.5625C42.8519 1.5625 43.2493 1.72712 43.5424 2.02015C43.8354 2.31317 44 2.7106 44 3.125V15.625ZM54.9375 12.5C54.9375 13.7432 54.4436 14.9355 53.5646 15.8146C52.6855 16.6936 51.4932 17.1875 50.25 17.1875C49.0068 17.1875 47.8145 16.6936 46.9354 15.8146C46.0564 14.9355 45.5625 13.7432 45.5625 12.5V6.25C45.5625 5.0068 46.0564 3.81451 46.9354 2.93544C47.8145 2.05636 49.0068 1.5625 50.25 1.5625C51.4932 1.5625 52.6855 2.05636 53.5646 2.93544C54.4436 3.81451 54.9375 5.0068 54.9375 6.25V12.5ZM61.1875 10.9375H59.625V15.625C59.625 16.0394 59.4604 16.4368 59.1674 16.7299C58.8743 17.0229 58.4769 17.1875 58.0625 17.1875C57.6481 17.1875 57.2507 17.0229 56.9576 16.7299C56.6646 16.4368 56.5 16.0394 56.5 15.625V3.125C56.5 2.7106 56.6646 2.31317 56.9576 2.02015C57.2507 1.72712 57.6481 1.5625 58.0625 1.5625H61.1875C62.4307 1.5625 63.623 2.05636 64.5021 2.93544C65.3811 3.81451 65.875 5.0068 65.875 6.25C65.875 7.4932 65.3811 8.68549 64.5021 9.56456C63.623 10.4436 62.4307 10.9375 61.1875 10.9375Z" fill="#007A1B"/>
<path d="M1.8125 42.1875C1.8125 43.4307 2.30636 44.623 3.18544 45.5021C4.06451 46.3811 5.2568 46.875 6.5 46.875C7.7432 46.875 8.93549 46.3811 9.81456 45.5021C10.6936 44.623 11.1875 43.4307 11.1875 42.1875V40.625H1.8125V42.1875Z" fill="#007A1B"/>
<path d="M61.1875 4.6875H59.625V7.8125H61.1875C61.6019 7.8125 61.9993 7.64788 62.2924 7.35485C62.5854 7.06183 62.75 6.6644 62.75 6.25C62.75 5.8356 62.5854 5.43817 62.2924 5.14515C61.9993 4.85212 61.6019 4.6875 61.1875 4.6875Z" fill="#007A1B"/>
<path d="M50.25 4.6875C49.8356 4.6875 49.4382 4.85212 49.1451 5.14515C48.8521 5.43817 48.6875 5.8356 48.6875 6.25V12.5C48.6875 12.9144 48.8521 13.3118 49.1451 13.6049C49.4382 13.8979 49.8356 14.0625 50.25 14.0625C50.6644 14.0625 51.0618 13.8979 51.3549 13.6049C51.6479 13.3118 51.8125 12.9144 51.8125 12.5V6.25C51.8125 5.8356 51.6479 5.43817 51.3549 5.14515C51.0618 4.85212 50.6644 4.6875 50.25 4.6875Z" fill="#007A1B"/>
<path d="M24.1719 37.5L27.6875 28.125H19.9688L15.2812 37.5H24.1719Z" fill="#007A1B"/>
<path d="M3.0625 37.5H11.7812L16.4688 28.125H8.92188L3.0625 37.5Z" fill="#007A1B"/>
<path d="M71.5312 28.125L76.2187 37.5H84.9375L79.0781 28.125H71.5312Z" fill="#007A1B"/>
<path d="M87.75 85.9375C87.75 85.5231 87.5854 85.1257 87.2924 84.8326C86.9993 84.5396 86.6019 84.375 86.1875 84.375H1.8125C1.3981 84.375 1.00067 84.5396 0.707646 84.8326C0.41462 85.1257 0.25 85.5231 0.25 85.9375V89.0625H87.75V85.9375Z" fill="#007A1B"/>
<path d="M26.8125 42.1875C26.8125 43.4307 27.3064 44.623 28.1854 45.5021C29.0645 46.3811 30.2568 46.875 31.5 46.875C32.7432 46.875 33.9355 46.3811 34.8146 45.5021C35.6936 44.623 36.1875 43.4307 36.1875 42.1875V40.625H26.8125V42.1875Z" fill="#007A1B"/>
</svg>
