<svg width="90" height="86" viewBox="0 0 90 86" fill="none" xmlns="http://www.w3.org/2000/svg">
<path d="M52.2451 4.95342C51.8586 4.35697 51.7345 3.95392 51.7345 3.95392L51.9187 3.7845C51.9187 3.7845 52.2768 3.93333 52.9027 4.18982C53.1981 4.30767 53.5598 4.45235 53.9743 4.61553C54.3827 4.76342 54.8271 4.93586 55.3034 5.05145C55.538 5.12416 55.7769 5.1965 56.0238 5.22426C56.1481 5.24069 56.2665 5.27488 56.3896 5.29754C56.5116 5.30585 56.634 5.30982 56.7556 5.32531C57.2477 5.39141 57.7 5.33796 58.196 5.31209C58.426 5.22747 58.6817 5.20367 58.932 5.09602C59.1613 4.9606 59.461 4.88203 59.6739 4.70846C59.7866 4.63102 59.9037 4.55037 60.0293 4.47067C60.1597 4.39739 60.2983 4.33941 60.4367 4.18963L61.3131 3.45379C61.3214 3.44246 61.2619 3.52915 61.2904 3.48873L61.2965 3.4825L61.3114 3.46928L61.3403 3.44454L61.3979 3.39298L61.5135 3.28967L61.7433 3.08814L62.1772 2.67678C62.4499 2.39574 62.7931 2.17665 63.0681 1.90581C63.3389 1.62553 63.7029 1.45404 63.9924 1.18225C64.3021 0.938233 64.6642 0.755406 65.0134 0.518752C65.7472 0.173498 66.6047 -0.0827989 67.3724 0.024857C67.5649 0.0454438 67.7519 0.0754742 67.9358 0.109471C68.1137 0.158955 68.2809 0.220149 68.4463 0.282098C68.7852 0.393909 69.077 0.553882 69.352 0.711966C69.9014 1.02946 70.3381 1.39719 70.6871 1.75283C71.034 2.10942 71.2949 2.45675 71.4826 2.75951C71.6794 3.05584 71.7931 3.31762 71.8732 3.49648C71.9395 3.68044 71.9744 3.77959 71.9744 3.77959L71.7905 3.95109C71.7905 3.95109 71.3959 3.81775 70.79 3.56447C70.4948 3.44681 70.1367 3.29911 69.7257 3.13366C69.3289 2.97029 68.8924 2.79048 68.4314 2.63447C68.2019 2.54967 67.9645 2.46185 67.7247 2.40386C67.6028 2.37402 67.4831 2.32624 67.3607 2.2913C67.2387 2.26656 67.1171 2.23539 66.9947 2.19516C66.4996 2.03387 65.9882 1.87484 65.3549 1.80873C65.064 1.84708 64.7167 1.83461 64.4141 1.96078C64.1231 2.10847 63.7888 2.22217 63.5552 2.4847C63.3196 2.73779 63.0509 2.95914 62.8858 3.28154L62.6458 3.76203L62.5355 4.00397L62.4818 4.1239L62.4554 4.18585L62.4422 4.21362L62.4359 4.22816L62.4318 4.23742C62.4556 4.20229 62.3947 4.29332 62.3989 4.28803L61.9265 5.32984C61.7715 5.66584 61.4158 6.04509 61.1255 6.37882C60.8309 6.74259 60.4364 6.95148 60.0851 7.23667C59.7173 7.49505 59.2684 7.64388 58.8574 7.83086C57.9827 8.08073 57.069 8.12549 56.3001 7.91982C55.9074 7.83312 55.5461 7.71924 55.2277 7.55397C54.8943 7.41327 54.6071 7.23781 54.3362 7.0682C53.7979 6.7118 53.3713 6.33444 53.0342 5.96444C52.6897 5.60653 52.4345 5.25316 52.2451 4.95342ZM90 64.0537V85.5093H0V64.0537H6.13053V39.952L23.4065 27.8309V39.952L40.6798 27.8309V39.952L57.9567 27.8309V51.6555H63.9174L67.1546 9.51124H77.035L79.8684 51.6555H86.5159V64.0554H89.9998V64.0537H90ZM28.2125 54.7887H14.6301V67.3272H28.2125V54.7887ZM51.6169 54.7887H38.0341V67.3272H51.6169V54.7887ZM75.3153 54.7887H61.7329V67.3272H75.3153V54.7887Z" fill="#E88B00"/>
</svg>
