<svg width="90" height="90" viewBox="0 0 90 90" fill="none" xmlns="http://www.w3.org/2000/svg">
<g clip-path="url(#clip0_1730:11700)">
<path d="M22.2728 48.5205C22.2728 43.2052 17.9483 38.8809 12.6329 38.8809C7.31759 38.8809 2.99325 43.2052 2.99325 48.5205C2.99325 52.98 6.03762 56.7405 10.1568 57.8364H0.00390625L2.34659 90.0005H22.9191L25.2619 57.8364H15.109C19.2282 56.7405 22.2728 52.98 22.2728 48.5205Z" fill="#D52300"/>
<path d="M87.0109 48.5205C87.0109 43.2052 82.6864 38.8809 77.371 38.8809C72.0557 38.8809 67.7314 43.2052 67.7314 48.5205C67.7314 52.98 70.7757 56.7405 74.8949 57.8364H64.7422L67.0849 90.0005H87.6574L90.0002 57.8364H79.8473C83.9663 56.7405 87.0109 52.98 87.0109 48.5205Z" fill="#D52300"/>
<path d="M56.2211 57.8364H47.4788C51.598 56.7405 54.6423 52.98 54.6423 48.5205C54.6423 43.2052 50.318 38.8809 45.0027 38.8809C39.6873 38.8809 35.363 43.2052 35.363 48.5205C35.363 52.98 38.4074 56.7405 42.5266 57.8364H33.7842L31.1562 90.0005H58.8492L56.2211 57.8364Z" fill="#D52300"/>
<path d="M16.6865 34.1721C22.9445 35.9434 27.5447 41.7027 27.5447 48.52C27.5447 49.4033 27.4661 50.2723 27.3158 51.1197H30.3162C30.1659 50.2721 30.0874 49.4033 30.0874 48.52C30.0874 42.1643 34.0856 36.7275 39.6979 34.5848L40.8363 18.9556H30.6834C34.8026 17.8596 37.847 14.0992 37.847 9.63967C37.847 4.32433 33.5225 0 28.2071 0C22.8918 0 18.5675 4.32433 18.5675 9.63967C18.5675 14.0992 21.6118 17.8596 25.731 18.9556H15.5781L16.6865 34.1721Z" fill="#D52300"/>
<path d="M48.1328 33.941C54.8564 35.3844 59.913 41.3715 59.913 48.52C59.913 49.4033 59.8345 50.2723 59.6842 51.1197H62.6846C62.5343 50.2721 62.4557 49.4033 62.4557 48.52C62.4557 41.8008 66.9235 36.1074 73.0437 34.2489L71.7941 18.9556H63.0518C67.171 17.8596 70.2153 14.0992 70.2153 9.63967C70.2155 4.32433 65.8912 0 60.5757 0C55.2602 0 50.936 4.32433 50.936 9.63967C50.936 14.0992 53.9804 17.8596 58.0996 18.9556H49.3572L48.1328 33.941Z" fill="#D52300"/>
</g>
<defs>
<clipPath id="clip0_1730:11700">
<rect width="90" height="90" fill="white"/>
</clipPath>
</defs>
</svg>
