<svg width="90" height="90" viewBox="0 0 90 90" fill="none" xmlns="http://www.w3.org/2000/svg">
<g clip-path="url(#clip0_2745_1316)">
<path d="M48.8625 7.01298L7.65 0.750476C5.7375 0.450476 3.7875 0.975476 2.325 2.21298C0.8625 3.48798 0 5.32548 0 7.23798V86.2505C0 88.313 1.6875 90.0005 3.75 90.0005H15.9375V70.313C15.9375 66.6755 18.8625 63.7505 22.5 63.7505H31.875C35.5125 63.7505 38.4375 66.6755 38.4375 70.313V90.0005H54.375V13.5005C54.375 10.2755 52.05 7.53798 48.8625 7.01298ZM20.625 55.313H15C13.4475 55.313 12.1875 54.053 12.1875 52.5005C12.1875 50.948 13.4475 49.688 15 49.688H20.625C22.1775 49.688 23.4375 50.948 23.4375 52.5005C23.4375 54.053 22.1775 55.313 20.625 55.313ZM20.625 44.063H15C13.4475 44.063 12.1875 42.803 12.1875 41.2505C12.1875 39.698 13.4475 38.438 15 38.438H20.625C22.1775 38.438 23.4375 39.698 23.4375 41.2505C23.4375 42.803 22.1775 44.063 20.625 44.063ZM20.625 32.813H15C13.4475 32.813 12.1875 31.553 12.1875 30.0005C12.1875 28.448 13.4475 27.188 15 27.188H20.625C22.1775 27.188 23.4375 28.448 23.4375 30.0005C23.4375 31.553 22.1775 32.813 20.625 32.813ZM20.625 21.563H15C13.4475 21.563 12.1875 20.303 12.1875 18.7505C12.1875 17.198 13.4475 15.938 15 15.938H20.625C22.1775 15.938 23.4375 17.198 23.4375 18.7505C23.4375 20.303 22.1775 21.563 20.625 21.563ZM39.375 55.313H33.75C32.1975 55.313 30.9375 54.053 30.9375 52.5005C30.9375 50.948 32.1975 49.688 33.75 49.688H39.375C40.9275 49.688 42.1875 50.948 42.1875 52.5005C42.1875 54.053 40.9275 55.313 39.375 55.313ZM39.375 44.063H33.75C32.1975 44.063 30.9375 42.803 30.9375 41.2505C30.9375 39.698 32.1975 38.438 33.75 38.438H39.375C40.9275 38.438 42.1875 39.698 42.1875 41.2505C42.1875 42.803 40.9275 44.063 39.375 44.063ZM39.375 32.813H33.75C32.1975 32.813 30.9375 31.553 30.9375 30.0005C30.9375 28.448 32.1975 27.188 33.75 27.188H39.375C40.9275 27.188 42.1875 28.448 42.1875 30.0005C42.1875 31.553 40.9275 32.813 39.375 32.813ZM39.375 21.563H33.75C32.1975 21.563 30.9375 20.303 30.9375 18.7505C30.9375 17.198 32.1975 15.938 33.75 15.938H39.375C40.9275 15.938 42.1875 17.198 42.1875 18.7505C42.1875 20.303 40.9275 21.563 39.375 21.563Z" fill="#1E80DA"/>
<path d="M84.825 40.6586L58.125 35.0674V90.0011H83.4375C87.0562 90.0011 90 87.0574 90 83.4386V47.0711C90 43.9736 87.8887 41.3374 84.825 40.6586ZM75.9375 78.7511H70.3125C68.76 78.7511 67.5 77.4911 67.5 75.9386C67.5 74.3861 68.76 73.1261 70.3125 73.1261H75.9375C77.49 73.1261 78.75 74.3861 78.75 75.9386C78.75 77.4911 77.49 78.7511 75.9375 78.7511ZM75.9375 67.5011H70.3125C68.76 67.5011 67.5 66.2411 67.5 64.6886C67.5 63.1361 68.76 61.8761 70.3125 61.8761H75.9375C77.49 61.8761 78.75 63.1361 78.75 64.6886C78.75 66.2411 77.49 67.5011 75.9375 67.5011ZM75.9375 56.2511H70.3125C68.76 56.2511 67.5 54.9911 67.5 53.4386C67.5 51.8861 68.76 50.6261 70.3125 50.6261H75.9375C77.49 50.6261 78.75 51.8861 78.75 53.4386C78.75 54.9911 77.49 56.2511 75.9375 56.2511Z" fill="#1E80DA"/>
</g>
<defs>
<clipPath id="clip0_2745_1316">
<rect width="90" height="90" fill="white"/>
</clipPath>
</defs>
</svg>
